PathFileType  4	(X/Y/Z) C:\Users\antoi\Documents\MyRepositories\mobilecap\ResultsAnalysis
DataRate	CameraRate	NumFrames	NumMarkers	Units	OrigDataRate	OrigDataStartFrame	OrigNumFrames
100.0	100.0	4	51	mm	100.0	19	150
Frame#	Time	r_knee			r_shank_antsup			r_ankle			r_calc			r_5meta			r_toe			L_knee			L_shank_antsup			L_ankle			L_calc			L_5meta			L_toe			r_sh2			r_sh3			r_sh4			L_sh2			L_sh3			r_thigh1			r_thigh2			r_thigh3			r_thigh4			r_thigh5			L_thigh1			L_thigh2			L_thigh3			L_thigh4			r.ASIS			r.PSIS			L.ASIS			L.PSIS			C7			R_Shoulder			L_Shoulder			R_Sternum			L_Sternum			R_humerus			R_elbow_med			R_elbow_lat			R_forearm			R_wrist_radius			R_wrist_ulna			L_humerus			L_elbow_med			L_elbow_lat			L_forearm			L_wrist_radius			L_wrist_ulna			R_HJC			L_HJC			R_HJC_reg			L_HJC_reg			
		X1	Y1	Z1	X2	Y2	Z2	X3	Y3	Z3	X4	Y4	Z4	X5	Y5	Z5	X6	Y6	Z6	X7	Y7	Z7	X8	Y8	Z8	X9	Y9	Z9	X10	Y10	Z10	X11	Y11	Z11	X12	Y12	Z12	X13	Y13	Z13	X14	Y14	Z14	X15	Y15	Z15	X16	Y16	Z16	X17	Y17	Z17	X18	Y18	Z18	X19	Y19	Z19	X20	Y20	Z20	X21	Y21	Z21	X22	Y22	Z22	X23	Y23	Z23	X24	Y24	Z24	X25	Y25	Z25	X26	Y26	Z26	X27	Y27	Z27	X28	Y28	Z28	X29	Y29	Z29	X30	Y30	Z30	X31	Y31	Z31	X32	Y32	Z32	X33	Y33	Z33	X34	Y34	Z34	X35	Y35	Z35	X36	Y36	Z36	X37	Y37	Z37	X38	Y38	Z38	X39	Y39	Z39	X40	Y40	Z40	X41	Y41	Z41	X42	Y42	Z42	X43	Y43	Z43	X44	Y44	Z44	X45	Y45	Z45	X46	Y46	Z46	X47	Y47	Z47	X48	Y48	Z48	X49	Y49	Z49	X50	Y50	Z50	X51	Y51	Z51	

19	0.18000000	213.09215	487.90004	-92.51725	251.73943	440.76154	-106.99424	146.49362	91.34380	-128.72746	86.62841	58.65720	-177.43415	283.86827	34.72513	-88.52562	315.92152	59.94923	-147.11395	105.65749	458.18906	-392.10737	65.46047	384.68364	-399.76853	-229.90371	265.11338	-347.18036	-286.47896	294.86692	-287.04978	-229.70735	126.54685	-374.06068	-180.67592	101.38162	-331.77741	241.75229	327.99988	-122.23559	189.71545	437.97374	-61.23909	179.84264	322.41072	-63.20249	28.91962	464.26987	-401.34459	-77.56716	405.16034	-392.51986	224.81925	790.08171	-151.49377	256.82716	683.65502	-147.70264	258.55584	662.80220	-82.72220	182.13883	779.93920	-48.22466	213.10583	670.57086	-48.59270	125.10520	771.77703	-400.50815	134.51179	630.47908	-412.60405	15.18427	762.01576	-378.48479	28.75600	628.04879	-364.64509	194.76550	948.45371	-117.79850	-7.47243	983.28125	-175.26529	170.51736	919.23046	-347.99873	-17.98902	972.55270	-272.01177	56.87601	1437.30383	-179.32235	98.66998	1365.57032	-20.42967	134.03731	1407.47915	-343.71714	162.11320	1331.47045	-170.89907	166.20271	1334.24472	-208.83147	82.61744	1118.94224	27.65914	26.95788	1036.43592	-19.34902	48.08524	1030.61415	37.62388	105.36946	897.49748	47.45850	143.31000	799.82014	28.98432	101.27275	794.03136	55.34902	109.33306	1188.90248	-455.64800	41.35512	1090.83118	-433.24049	74.29060	1097.45287	-481.57749	133.24227	963.75721	-498.65485	161.20089	856.51335	-480.12839	132.45827	855.21690	-514.27321	112.67244	867.29397	-134.67731	81.82699	854.29374	-322.39102	118.73788	877.09137	-134.36055	102.19841	860.21725	-286.51582	
20	0.19000000	215.70647	487.67735	-91.58996	253.91480	440.27172	-106.10318	146.52356	91.43088	-128.60409	86.77019	58.73645	-177.43313	283.81677	34.63947	-88.41306	315.91335	59.85339	-147.00745	126.49467	462.27636	-391.89199	87.57542	388.53178	-399.52591	-206.07626	265.73438	-345.75172	-263.35390	293.88846	-285.37143	-203.02259	127.72599	-374.07054	-153.13632	103.09264	-332.07466	243.26548	327.66616	-121.63075	191.93885	437.85983	-60.35727	181.26617	322.36175	-62.57402	50.10123	467.71535	-400.47592	-55.62001	407.41249	-391.19572	232.70644	789.87353	-150.11392	262.02409	682.60939	-146.23695	263.67190	661.84247	-81.28118	188.95505	780.21085	-47.18182	218.33588	670.47465	-47.41259	137.64822	776.06421	-400.21386	150.86057	635.16909	-412.95492	27.89838	763.53302	-378.54936	44.97130	629.93181	-364.60514	204.20503	950.03527	-116.39096	2.02863	985.36071	-174.06802	180.47713	922.46344	-346.80655	-8.35694	975.32013	-270.96297	67.67908	1440.04124	-178.51909	110.69049	1368.84946	-19.70513	143.57671	1409.61734	-343.36076	172.86257	1334.07965	-170.47226	176.66047	1336.67136	-208.43170	95.54269	1122.28068	28.70383	39.14877	1039.65736	-17.44381	61.19095	1033.81159	39.15838	120.14304	901.27753	47.89827	159.40129	804.27375	28.69274	117.58324	797.76949	55.43156	116.32974	1191.16385	-455.09755	47.81605	1093.74204	-432.11025	80.54523	1100.02550	-480.63688	137.80600	965.72477	-498.27626	164.63952	858.18033	-480.04639	135.68941	857.21102	-513.96536	122.06023	869.04175	-134.03048	91.65309	857.37923	-321.90185	128.23688	878.84788	-133.57313	111.91590	863.06778	-285.84329	
21	0.20000000	217.91481	487.52865	-90.53162	255.65944	439.90059	-104.86800	146.55500	91.53339	-128.51033	86.89651	58.81713	-177.45912	283.77555	34.57240	-88.30204	315.90051	59.76127	-146.90878	147.13641	466.46624	-391.53164	109.64646	392.20773	-399.17087	-181.75595	264.86231	-344.44568	-239.84017	291.35460	-283.95207	-175.34228	127.40416	-373.79594	-124.45407	103.66742	-331.96089	244.43068	327.42518	-120.65202	193.38881	437.87451	-59.58670	181.96587	322.44407	-62.00319	70.79923	470.81776	-399.81520	-33.81378	408.77309	-390.11279	240.51801	789.64333	-148.54139	267.33885	681.65614	-144.57158	268.48721	660.81820	-79.68773	195.54538	780.44879	-46.05565	223.20263	670.28611	-46.16765	150.11778	780.43407	-399.91482	167.14546	640.01468	-413.19900	40.56838	765.13895	-378.81356	60.99684	631.94417	-364.89775	213.53915	951.55399	-114.92283	11.48892	987.37781	-172.89377	190.48686	925.72698	-345.56033	1.27215	978.04676	-269.94113	78.35143	1442.72134	-177.81239	122.64906	1372.14708	-19.10059	152.89985	1411.68165	-343.10731	183.34410	1336.58733	-170.11148	186.98400	1339.05176	-208.11577	108.55168	1125.66424	29.75185	51.30770	1042.89832	-15.34677	74.51259	1037.03202	40.80415	135.07872	905.16912	48.34819	175.64834	808.87034	28.35769	134.09560	801.65659	55.56754	123.19595	1193.30342	-454.51133	54.19796	1096.52533	-430.90459	86.65585	1102.48808	-479.66902	142.20868	967.64261	-497.97811	167.97304	859.85202	-480.14840	138.73911	859.15259	-513.71976	131.38789	870.72794	-133.39419	101.52614	860.47372	-321.43182	137.67641	880.57063	-132.77173	121.63365	865.91746	-285.15483	
22	0.21000000	219.81353	487.42940	-89.38417	257.08917	439.62298	-103.38972	146.59864	91.64853	-128.45357	86.98501	58.90387	-177.50624	283.74325	34.52261	-88.19384	315.88907	59.67690	-146.82262	167.54778	470.70654	-391.00881	131.62885	395.68341	-398.68777	-156.93963	262.53191	-343.25957	-215.94905	287.25342	-282.74476	-146.62552	125.70210	-373.28208	-94.65033	103.22396	-331.48756	245.33734	327.24426	-119.39170	194.25632	437.98295	-58.92196	182.13771	322.62408	-61.48953	91.00577	473.57869	-399.35555	-12.15510	409.29777	-389.29440	248.28509	789.36880	-146.81938	272.86181	680.77844	-142.75038	273.06780	659.73430	-77.99066	201.98975	780.65318	-44.87880	227.72778	669.96640	-44.87944	162.44675	784.86080	-399.62747	183.28964	644.96317	-413.29999	53.16069	766.80482	-379.25725	76.82397	634.04633	-365.52204	222.71716	952.94744	-113.38346	20.90613	989.29339	-171.75412	200.51841	928.95498	-344.26418	10.89633	980.68576	-268.95841	88.89588	1445.30516	-177.20993	134.53365	1375.43101	-18.62141	162.04329	1413.64819	-342.94630	193.55829	1338.97093	-169.82631	197.17166	1341.37108	-207.88909	121.61061	1129.06579	30.81507	63.46927	1046.11744	-13.09107	88.03863	1040.24451	42.53929	150.17922	909.13888	48.80545	192.01887	813.57198	27.98702	150.78994	805.68068	55.75355	129.93884	1195.31632	-453.90338	60.50710	1099.17103	-429.62416	92.63302	1104.82667	-478.66787	146.48392	969.50190	-497.73510	171.20898	861.50485	-480.38608	141.63942	861.02972	-513.50628	140.61529	872.29793	-132.76871	111.41995	863.52165	-320.98190	147.01120	882.21177	-131.94468	131.30624	868.70567	-284.44673	
